<svg xmlns="http://www.w3.org/2000/svg" viewBox="0 0 154 164" fill="none"><path fill="#FCB3BC" d="M63.037 0H8.222C3.682 0 0 4.08 0 9.111c0 5.032 3.681 9.111 8.222 9.111h54.815c4.541 0 8.222-4.079 8.222-9.11C71.26 4.078 67.578 0 63.037 0Z"/><path fill="#FAFBFC" d="M145.26 0H90.445c-4.541 0-8.222 4.08-8.222 9.111 0 5.032 3.68 9.111 8.222 9.111h54.815c4.541 0 8.222-4.079 8.222-9.11 0-5.033-3.681-9.112-8.222-9.112Z"/><path fill="#FFEEF0" d="M63.037 24.296H8.222c-4.54 0-8.222 4.08-8.222 9.111 0 5.032 3.681 9.111 8.222 9.111h54.815c4.541 0 8.222-4.08 8.222-9.111 0-5.032-3.681-9.111-8.222-9.111Z"/><path fill="#FCB3BC" d="M63.036 24.296H35.629c-4.541 0-8.223 4.08-8.223 9.111 0 5.032 3.681 9.111 8.223 9.111h27.407c4.54 0 8.222-4.08 8.222-9.111 0-5.032-3.681-9.111-8.222-9.111Z"/><path fill="#CFFED9" d="M145.26 24.296H90.445c-4.541 0-8.222 4.08-8.222 9.111 0 5.032 3.68 9.111 8.222 9.111h54.815c4.541 0 8.222-4.08 8.222-9.111 0-5.032-3.681-9.111-8.222-9.111Z"/><path fill="#81EB9C" d="M117.852 24.296h-16.444c-4.541 0-8.222 4.08-8.222 9.111 0 5.032 3.68 9.111 8.222 9.111h16.444c4.541 0 8.222-4.08 8.222-9.111 0-5.032-3.681-9.111-8.222-9.111Z"/><path fill="#FAFBFC" d="M63.037 48.593H8.222c-4.54 0-8.222 4.079-8.222 9.11 0 5.033 3.681 9.112 8.222 9.112h54.815c4.541 0 8.222-4.08 8.222-9.111 0-5.032-3.681-9.111-8.222-9.111Z"/><path fill="#81EB9C" d="M145.26 48.593H90.445c-4.541 0-8.222 4.079-8.222 9.11 0 5.033 3.68 9.112 8.222 9.112h54.815c4.541 0 8.222-4.08 8.222-9.111 0-5.032-3.681-9.111-8.222-9.111Z"/><path fill="#FAFBFC" d="M63.037 72.889H8.222c-4.54 0-8.222 4.079-8.222 9.11 0 5.033 3.681 9.112 8.222 9.112h54.815c4.541 0 8.222-4.08 8.222-9.111 0-5.032-3.681-9.111-8.222-9.111ZM145.26 72.889H90.445c-4.541 0-8.222 4.079-8.222 9.11 0 5.033 3.68 9.112 8.222 9.112h54.815c4.541 0 8.222-4.08 8.222-9.111 0-5.032-3.681-9.111-8.222-9.111Z"/><path fill="#AEF1BF" d="M145.26 72.889H90.445c-4.541 0-8.222 4.079-8.222 9.11 0 5.033 3.68 9.112 8.222 9.112h54.815c4.541 0 8.222-4.08 8.222-9.111 0-5.032-3.681-9.111-8.222-9.111Z"/><path fill="#81EB9C" d="M145.26 72.889H90.445c-4.541 0-8.222 4.079-8.222 9.11 0 5.033 3.68 9.112 8.222 9.112h54.815c4.541 0 8.222-4.08 8.222-9.111 0-5.032-3.681-9.111-8.222-9.111Z"/><path fill="#FFEEF0" d="M63.037 97.186H8.222c-4.54 0-8.222 4.079-8.222 9.111 0 5.032 3.681 9.111 8.222 9.111h54.815c4.541 0 8.222-4.079 8.222-9.111 0-5.032-3.681-9.111-8.222-9.111Z"/><path fill="#FCB3BC" d="M35.63 97.186H24.667c-4.54 0-8.222 4.079-8.222 9.111 0 5.032 3.681 9.111 8.223 9.111H35.63c4.541 0 8.223-4.079 8.223-9.111 0-5.032-3.681-9.111-8.223-9.111Z"/><path fill="#FAFBFC" d="M145.26 97.186H90.445c-4.541 0-8.222 4.079-8.222 9.111 0 5.032 3.68 9.111 8.222 9.111h54.815c4.541 0 8.222-4.079 8.222-9.111 0-5.032-3.681-9.111-8.222-9.111ZM63.037 121.481H8.222c-4.54 0-8.222 4.08-8.222 9.112 0 5.031 3.681 9.111 8.222 9.111h54.815c4.541 0 8.222-4.08 8.222-9.111 0-5.032-3.681-9.112-8.222-9.112ZM145.26 121.481H90.445c-4.541 0-8.222 4.08-8.222 9.112 0 5.031 3.68 9.111 8.222 9.111h54.815c4.541 0 8.222-4.08 8.222-9.111 0-5.032-3.681-9.112-8.222-9.112Z"/><path fill="#81EB9C" d="M145.26 121.481H90.445c-4.541 0-8.222 4.08-8.222 9.112 0 5.031 3.68 9.111 8.222 9.111h54.815c4.541 0 8.222-4.08 8.222-9.111 0-5.032-3.681-9.112-8.222-9.112Z"/><path fill="#FCB3BC" d="M63.037 145.777H8.222c-4.54 0-8.222 4.08-8.222 9.111C0 159.92 3.681 164 8.222 164h54.815c4.541 0 8.222-4.08 8.222-9.112 0-5.031-3.681-9.111-8.222-9.111Z"/><path fill="#FAFBFC" d="M145.26 145.777H90.445c-4.541 0-8.222 4.08-8.222 9.111 0 5.032 3.68 9.112 8.222 9.112h54.815c4.541 0 8.222-4.08 8.222-9.112 0-5.031-3.681-9.111-8.222-9.111Z"/></svg>
