<svg xmlns="http://www.w3.org/2000/svg" height="16" viewBox="0 0 72 69" fill="none"><path fill="#000" d="M36 .002A35.64 35.64 0 0 0 0 35.249a35.312 35.312 0 0 0 24.61 33.48c1.8.327 2.456-.753 2.456-1.702v-5.989c-10.015 2.128-12.142-4.712-12.142-4.712a9.36 9.36 0 0 0-3.993-5.171c-3.273-2.16.262-2.128.262-2.128a7.56 7.56 0 0 1 5.498 3.633 7.757 7.757 0 0 0 10.473 2.913 7.626 7.626 0 0 1 2.29-4.713c-7.985-.884-16.363-3.895-16.363-17.41a13.582 13.582 0 0 1 3.633-9.525 12.371 12.371 0 0 1 .36-9.294s3.043-.95 9.818 3.6a34.954 34.954 0 0 1 18 0c6.873-4.55 9.818-3.6 9.818-3.6a12.37 12.37 0 0 1 .36 9.294 13.582 13.582 0 0 1 3.83 9.459c0 13.549-8.444 16.527-16.364 17.41A8.181 8.181 0 0 1 45 57.34v9.655s.654 2.061 2.455 1.701A35.345 35.345 0 0 0 72 35.25 35.64 35.64 0 0 0 36 .002Z"/></svg>
