<svg xmlns="http://www.w3.org/2000/svg" width="32" height="32" fill="none"><path fill="#B4D6FA" d="M32 16c0 8.837-7.163 16-16 16S0 24.837 0 16 7.163 0 16 0s16 7.163 16 16ZM3.04 16c0 7.158 5.802 12.96 12.96 12.96 7.158 0 12.96-5.802 12.96-12.96 0-7.158-5.802-12.96-12.96-12.96C8.842 3.04 3.04 8.842 3.04 16Z"/><path fill="#0F6CBD" d="M16 30.48c0 .84.682 1.527 1.518 1.448a16.002 16.002 0 0 0 14.41-14.41c.08-.836-.608-1.518-1.448-1.518s-1.51.683-1.609 1.517A12.964 12.964 0 0 1 17.517 28.87c-.834.098-1.517.77-1.517 1.609Z"/></svg>