<svg xmlns="http://www.w3.org/2000/svg" fill="none" viewBox="0 0 150 164"><rect width="20" height="20" fill="#16152B" rx="2"/><rect width="20" height="20" y="92" fill="#071225" rx="2"/><rect width="20" height="20" x="78" fill="#2E2E78" rx="2"/><rect width="20" height="20" x="78" y="92" fill="#19428A" rx="2"/><rect width="20" height="20" y="26" fill="#3E45C9" rx="2"/><rect width="20" height="20" y="118" fill="#2461CA" rx="2"/><rect width="20" height="20" y="52" fill="#96A8FF" rx="2"/><rect width="20" height="20" y="144" fill="#6794D7" rx="2"/><rect width="20" height="20" x="78" y="26" fill="#5F71FA" rx="2"/><rect width="20" height="20" x="78" y="118" fill="#296FE6" rx="2"/><rect width="20" height="20" x="78" y="52" fill="#EBEFFF" rx="2"/><rect width="20" height="20" x="78" y="144" fill="#D2E0F4" rx="2"/><rect width="20" height="20" x="26" fill="#1E1D40" rx="2"/><rect width="20" height="20" x="26" y="92" fill="#0C2145" rx="2"/><rect width="20" height="20" x="104" fill="#353696" rx="2"/><rect width="20" height="20" x="104" y="92" fill="#13458F" rx="2"/><rect width="20" height="20" x="26" y="26" fill="#464FEB" rx="2"/><rect width="20" height="20" x="26" y="118" fill="#185ABD" rx="2"/><rect width="20" height="20" x="26" y="52" fill="#B0BEFF" rx="2"/><rect width="20" height="20" x="26" y="144" fill="#82ABF1" rx="2"/><rect width="20" height="20" x="104" y="26" fill="#7385FF" rx="2"/><rect width="20" height="20" x="104" y="118" fill="#3D7CE8" rx="2"/><rect width="20" height="20" x="52" fill="#27265C" rx="2"/><rect width="20" height="20" x="52" y="92" fill="#0E336A" rx="2"/><rect width="20" height="20" x="130" fill="#3B3FB2" rx="2"/><rect width="20" height="20" x="130" y="92" fill="#1651AA" rx="2"/><rect width="20" height="20" x="52" y="26" fill="#515EF5" rx="2"/><rect width="20" height="20" x="52" y="118" fill="#2E6AC5" rx="2"/><rect width="20" height="20" x="52" y="52" fill="#CCD6FF" rx="2"/><rect width="20" height="20" x="52" y="144" fill="#AEC6EB" rx="2"/><rect width="20" height="20" x="130" y="26" fill="#8295FF" rx="2"/><rect width="20" height="20" x="130" y="118" fill="#598FEC" rx="2"/></svg>
